<svg width="175" height="38" viewBox="0 0 175 38" fill="none" xmlns="http://www.w3.org/2000/svg">
<path d="M22.1641 0C34.405 0 44.3281 8.45242 44.3281 18.8789C44.3281 29.3054 34.405 37.7578 22.1641 37.7578C9.92321 37.7578 4.84107e-05 29.3053 0 18.8789C0 8.45245 9.92318 4.82939e-05 22.1641 0ZM24.3105 9.02344L19.3145 9.41895C18.5718 9.47772 17.8254 9.47685 17.083 9.41602L12.6689 9.05469C6.95249 8.58623 2.05469 13.0994 2.05469 18.835C2.05488 24.2544 6.44779 28.6474 11.8672 28.6475H25.0859C30.5132 28.6474 34.9131 24.2476 34.9131 18.8203C34.913 13.0873 30.0255 8.57115 24.3105 9.02344ZM7.52148 15.4619C7.85178 14.8338 8.63126 14.5919 9.26172 14.9199L14.1328 17.4561C14.5589 17.6779 14.8266 18.1173 14.8252 18.5967C14.8237 19.0761 14.5538 19.5151 14.126 19.7344L9.1709 22.2734C8.53833 22.5976 7.76084 22.3499 7.43457 21.7197C7.10833 21.0893 7.35751 20.3155 7.99023 19.9912L10.7363 18.584L8.06641 17.1943C7.4357 16.8659 7.19105 16.0903 7.52148 15.4619ZM26.8535 17.124C27.7344 17.1387 28.3999 17.8847 28.3857 18.7451C28.3714 19.6053 27.6817 20.3286 26.8008 20.3145L21.1777 20.2227C20.2967 20.2083 19.6306 19.4628 19.6445 18.6025C19.6587 17.7422 20.3486 17.0182 21.2295 17.0322L26.8535 17.124Z" fill="#8CB2F7"/>
<path d="M156.051 29.7627C153.65 31.2077 150.449 31.3937 147.31 29.2728V36.8388V37H147.15H143.13H142.97V36.8388V22.3021C142.97 19.0711 144.367 16.2183 147.501 14.823C149.064 14.1284 150.972 13.8493 152.807 14.0788C154.641 14.3082 156.414 15.0586 157.676 16.4354C159.202 18.0974 159.959 20.1316 159.959 22.5192C160.119 25.4836 158.507 28.2805 156.051 29.7627ZM154.425 19.3936C153.65 18.5998 152.659 18.2029 151.452 18.2029C150.246 18.2029 149.261 18.5998 148.479 19.3936C147.704 20.206 147.31 21.2479 147.31 22.5254C147.31 23.8029 147.704 24.8324 148.479 25.6262C149.255 26.4386 150.246 26.8479 151.452 26.8479C152.659 26.8479 153.644 26.4386 154.425 25.6262C155.22 24.8324 155.626 23.8029 155.626 22.5254C155.626 21.2479 155.226 20.206 154.425 19.3936Z" fill="#8CB2F7"/>
<path d="M133.015 31C131.354 31 129.836 30.6321 128.462 29.8965C127.108 29.1608 126.021 28.1567 125.2 26.8842C124.4 25.5918 124 24.1304 124 22.5C124 20.8497 124.4 19.3883 125.2 18.1158C126.021 16.8433 127.108 15.8392 128.462 15.1035C129.836 14.3678 131.354 14 133.015 14C134.677 14 136.185 14.3678 137.538 15.1035C138.892 15.8392 139.969 16.8433 140.769 18.1158C141.59 19.3883 142 20.8497 142 22.5C142 24.1304 141.59 25.5918 140.769 26.8842C139.969 28.1567 138.892 29.1608 137.538 29.8965C136.185 30.6321 134.677 31 133.015 31ZM133.015 26.9737C133.856 26.9737 134.585 26.7848 135.2 26.407C135.836 26.0292 136.328 25.5023 136.677 24.8263C137.046 24.1503 137.231 23.3748 137.231 22.5C137.231 21.6251 137.046 20.8596 136.677 20.2035C136.328 19.5275 135.836 19.0006 135.2 18.6228C134.585 18.2251 133.856 18.0263 133.015 18.0263C132.174 18.0263 131.436 18.2251 130.8 18.6228C130.164 19.0006 129.662 19.5275 129.292 20.2035C128.944 20.8596 128.769 21.6251 128.769 22.5C128.769 23.3748 128.944 24.1503 129.292 24.8263C129.662 25.5023 130.164 26.0292 130.8 26.407C131.436 26.7848 132.174 26.9737 133.015 26.9737Z" fill="#8CB2F7"/>
<path d="M168.458 31C166.632 31 165.039 30.5824 163.68 29.7473C162.34 28.8924 161.427 27.7491 160.94 26.3175L164.288 24.7667C164.714 25.6415 165.293 26.3275 166.023 26.8245C166.753 27.3216 167.565 27.5702 168.458 27.5702C169.107 27.5702 169.604 27.4409 169.949 27.1824C170.294 26.924 170.466 26.5661 170.466 26.1088C170.466 25.8702 170.406 25.6713 170.284 25.5123C170.162 25.3333 169.979 25.1743 169.736 25.0351C169.493 24.8959 169.188 24.7766 168.823 24.6772L165.993 23.9017C164.633 23.524 163.588 22.9175 162.858 22.0824C162.127 21.2275 161.762 20.2234 161.762 19.0702C161.762 18.0561 162.026 17.1713 162.553 16.4158C163.081 15.6602 163.822 15.0737 164.775 14.6561C165.729 14.2187 166.824 14 168.062 14C169.685 14 171.106 14.3778 172.323 15.1333C173.561 15.869 174.433 16.9129 174.94 18.2649L171.562 19.8158C171.319 19.1398 170.872 18.6029 170.223 18.2053C169.594 17.7877 168.874 17.5789 168.062 17.5789C167.474 17.5789 167.007 17.6982 166.662 17.9368C166.337 18.1754 166.175 18.5035 166.175 18.921C166.175 19.1398 166.236 19.3386 166.358 19.5175C166.48 19.6965 166.672 19.8555 166.936 19.9947C167.22 20.1339 167.565 20.2631 167.971 20.3824L170.619 21.1579C171.998 21.5555 173.053 22.162 173.784 22.9772C174.514 23.7725 174.879 24.7567 174.879 25.9298C174.879 26.9438 174.606 27.8286 174.058 28.5842C173.53 29.3397 172.79 29.9362 171.836 30.3737C170.882 30.7912 169.756 31 168.458 31Z" fill="#8CB2F7"/>
<path d="M69.2599 15.243C66.8264 13.7891 63.5816 13.6019 60.3992 15.7359V8.12318V7.96094H60.2369H56.1622H56V8.12318V22.7497C56 26.0007 57.4165 28.8711 60.5926 30.2751C62.1776 30.9739 64.112 31.2547 65.9715 31.0239C67.831 30.793 69.6281 30.038 70.9073 28.6527C72.4548 26.9804 73.2223 24.9337 73.2223 22.5313C73.3846 19.5486 71.7497 16.7343 69.2599 15.243ZM67.6126 25.6762C66.8264 26.4749 65.8217 26.8743 64.5987 26.8743C63.3756 26.8743 62.3773 26.4749 61.5848 25.6762C60.7985 24.8588 60.3992 23.8105 60.3992 22.525C60.3992 21.2396 60.7985 20.2038 61.5848 19.405C62.371 18.5876 63.3756 18.1758 64.5987 18.1758C65.8217 18.1758 66.8201 18.5876 67.6126 19.405C68.4175 20.2038 68.8294 21.2396 68.8294 22.525C68.8294 23.8105 68.4238 24.8588 67.6126 25.6762Z" fill="#8CB2F7"/>
<path d="M75.7807 30.5309V30.6932H75.9429H80.0176H80.1799V30.5309V7.16224V7H80.0176H75.9429H75.7807V7.16224V30.5309Z" fill="#8CB2F7"/>
<path d="M83.8859 11.98C84.4225 12.5042 85.0528 12.7663 85.7703 12.7663C86.5067 12.7663 87.1369 12.5042 87.6548 11.98C88.1915 11.4372 88.4598 10.8007 88.4598 10.0768C88.4598 9.34677 88.1915 8.71029 87.6548 8.17365C87.1431 7.62453 86.5129 7.34998 85.7703 7.34998C85.0528 7.34998 84.4225 7.62453 83.8859 8.16741C83.3742 8.71029 83.1121 9.34677 83.1121 10.0706C83.1121 10.8007 83.3742 11.4372 83.8859 11.98Z" fill="#8CB2F7"/>
<path d="M83.5867 30.5312V30.6934H83.7489H87.8236H87.9858V30.5312V14.5256V14.3634H87.8236H83.7489H83.5867V14.5256V30.5312Z" fill="#8CB2F7"/>
<path d="M106.312 30.6929H106.475V30.5307V20.7027C106.475 18.5999 105.894 16.9338 104.721 15.7232C103.573 14.5127 102.107 13.9136 100.341 13.9136C98.3501 13.9136 96.8276 14.5439 95.7918 15.8231V14.5252V14.3629H95.6295H91.5548H91.3926V14.5252V30.5307V30.6929H91.5548H95.6295H95.7918V30.5307V21.8883C95.7918 20.5904 96.1038 19.6419 96.6966 19.0242C97.2956 18.4002 98.0881 18.0819 99.1052 18.0819C100.016 18.0819 100.734 18.3565 101.264 18.8994C101.795 19.4173 102.069 20.1786 102.069 21.2144V30.5307V30.6929H102.231H106.312Z" fill="#8CB2F7"/>
<path d="M124.359 30.6927H124.696L124.484 30.4244L118.025 22.431L124.296 14.6248L124.509 14.3627H124.172H119.304H119.223L119.173 14.4251L114.032 21.0894V8.12275V7.96051H113.869H109.795H109.632V8.12275V30.5305V30.6927H109.795H113.869H114.032V30.5305V23.7289L119.492 30.6303L119.542 30.6927H119.616H124.359Z" fill="#8CB2F7"/>
</svg>
