<?xml version="1.0" encoding="utf-8"?>
<!-- Generator: Adobe Illustrator 26.3.1, SVG Export Plug-In . SVG Version: 6.00 Build 0)  -->
<svg version="1.1" id="Layer_1" xmlns="http://www.w3.org/2000/svg" xmlns:xlink="http://www.w3.org/1999/xlink" x="0px" y="0px"
	 viewBox="0 0 39.6 40.1" style="enable-background:new 0 0 39.6 40.1;" xml:space="preserve">
<style type="text/css">
	.st0{fill:#01EB9C;}
</style>
<path class="st0" d="M35.8,40.1h-3H35.8C35.8,40.1,35.8,40.1,35.8,40.1"/>
<path class="st0" d="M3.9,0L3.9,0C1.7,0,0,1.8,0,3.9v32.3c0,2.2,1.7,3.9,3.9,3.9h28.9h3c2.1,0,3.8-1.8,3.8-3.9V3.9
	c0-2.2-1.7-3.9-3.9-3.9L3.9,0z M20,36.2c-0.3,0-0.6-0.1-0.9-0.2L6.8,28.8c-0.6-0.3-0.9-1-0.9-1.6V12.9c0-0.7,0.4-1.3,0.9-1.6L19,4.1
	c0.3-0.2,0.6-0.2,0.9-0.2s0.6,0.1,0.9,0.2l12.2,7.2c0.6,0.3,0.9,0.9,0.9,1.6v14.3c0,0.7-0.3,1.3-0.9,1.6l-12.2,7.1
	C20.6,36.1,20.3,36.2,20,36.2"/>
<path class="st0" d="M20.9,10.4c-0.6-0.3-1.3-0.3-1.9,0l-6.8,4c-0.6,0.3-0.9,1-0.9,1.6v8c0,0.7,0.4,1.3,0.9,1.6l6.8,4
	c0.6,0.3,1.3,0.3,1.9,0l6.8-4c0.6-0.3,0.9-1,0.9-1.6v-8c0-0.7-0.4-1.3-0.9-1.6L20.9,10.4z"/>
</svg>
