<svg width="140" height="25" viewBox="0 0 140 25" fill="none" xmlns="http://www.w3.org/2000/svg">
<path d="M67.4174 1.57466C67.0661 1.58343 66.7252 1.69865 66.4374 1.90586C66.1495 2.11307 65.9275 2.40307 65.7991 2.73951C65.6708 3.07595 65.6418 3.44388 65.7159 3.79719C65.7899 4.1505 65.9636 4.47347 66.2153 4.72563C66.467 4.9778 66.7855 5.14795 67.1308 5.21476C67.4761 5.28156 67.8329 5.24206 68.1564 5.10119C68.48 4.96032 68.7559 4.72436 68.9497 4.42287C69.1435 4.12137 69.2464 3.76776 69.2457 3.40634C69.2482 3.16092 69.2022 2.91752 69.1106 2.69089C69.019 2.46426 68.8837 2.25911 68.7128 2.08787C68.5418 1.91662 68.3389 1.78284 68.1162 1.69463C67.8936 1.60642 67.6558 1.5656 67.4174 1.57466Z" fill="#8ED1FC"/>
<path d="M69.3377 6.33649H66.2227V18.4853H69.3377V6.33649Z" fill="#8ED1FC"/>
<path d="M77.843 15.9505C76.0841 15.9505 74.8103 14.5333 74.8103 12.3852C74.8103 10.2371 76.0494 8.85557 77.8083 8.85557C79.641 8.85557 80.841 10.3173 80.841 12.3852C80.841 14.5467 79.6236 15.9505 77.8083 15.9505H77.843ZM80.958 7.61216C80.5221 7.10044 79.9823 6.69348 79.3766 6.42009C78.771 6.1467 78.1143 6.01355 77.4531 6.03005C74.0911 6.03005 71.6953 8.6773 71.6953 12.4164C71.6953 16.1556 73.9308 18.7805 77.3275 18.7805C77.9813 18.8031 78.6318 18.6752 79.2314 18.4061C79.8311 18.137 80.3647 17.7335 80.7934 17.2251V17.7822C80.7934 19.6629 79.238 20.1977 77.5441 20.1977C76.376 20.186 75.2259 19.8994 74.1821 19.3599L73.2333 21.8244C74.5713 22.5435 76.0562 22.9253 77.5657 22.9386C81.0317 22.9386 83.9084 21.4768 83.9084 16.9488V6.33311H80.9753L80.958 7.61216Z" fill="#8ED1FC"/>
<path d="M93.2495 6.03395C92.631 6.0247 92.0204 6.17781 91.4753 6.47881C90.9303 6.77981 90.4688 7.21876 90.1345 7.75421V1.69318H87.0195V18.4814H90.1345V11.1814C90.1154 10.8814 90.1579 10.5806 90.2593 10.2987C90.3608 10.0167 90.5188 9.75995 90.7232 9.54508C90.9276 9.3302 91.1738 9.16205 91.4456 9.05159C91.7174 8.94114 92.0088 8.89086 92.3007 8.90403C92.5718 8.90574 92.8396 8.96467 93.0876 9.07718C93.3355 9.18969 93.5584 9.35337 93.7424 9.55809C93.9264 9.76281 94.0676 10.0042 94.1572 10.2673C94.2468 10.5305 94.2829 10.8097 94.2633 11.0878V18.4814H97.3567V11.4711C97.3567 8.89066 96.6591 6.03395 93.2712 6.03395" fill="#8ED1FC"/>
<path d="M103.391 13.6244V8.94937H105.605V6.33332H103.391V3.77966H100.319V6.33332H99.0586V8.94937H100.298V13.718C100.298 17.0159 101.541 18.6203 104.366 18.6203C104.812 18.6296 105.258 18.5907 105.696 18.5044V15.7859C105.507 15.7962 105.317 15.7962 105.128 15.7859C103.933 15.7859 103.395 15.416 103.395 13.6021" fill="#8ED1FC"/>
<path d="M111.396 8.09881V6.31615H108.363V18.4828H111.452V13.1838C111.452 10.7683 112.319 9.28428 114.637 9.28428V6.03093C113.957 6.00601 113.285 6.18923 112.707 6.55736C112.128 6.92549 111.669 7.46196 111.387 8.09881" fill="#8ED1FC"/>
<path d="M123.749 13.6276C123.749 14.9289 122.939 15.9049 121.648 15.9049C121.377 15.9038 121.109 15.8454 120.86 15.7331C120.612 15.6208 120.389 15.4571 120.205 15.2522C120.021 15.0474 119.88 14.8057 119.79 14.5423C119.701 14.2789 119.665 13.9994 119.685 13.7211V6.33649H116.57V13.3512C116.57 15.9272 117.294 18.7839 120.656 18.7839C121.28 18.7937 121.896 18.6416 122.448 18.3418C123 18.0419 123.47 17.6039 123.814 17.0681V18.4853H126.847V6.33649H123.732L123.749 13.6276Z" fill="#8ED1FC"/>
<path d="M135.876 6.03738C135.255 6.03181 134.643 6.18633 134.095 6.48683C133.547 6.78733 133.081 7.22423 132.74 7.75764V6.34043H129.707V18.4848H132.822V11.1848C132.822 9.88346 133.637 8.90746 134.923 8.90746C135.194 8.90917 135.462 8.9681 135.71 9.08061C135.958 9.19312 136.181 9.3568 136.365 9.56152C136.549 9.76624 136.69 10.0076 136.78 10.2708C136.869 10.5339 136.905 10.8131 136.886 11.0912V18.4848H140.001V11.4745C140.001 8.89409 139.282 6.03738 135.915 6.03738" fill="#8ED1FC"/>
<path d="M59.0085 2.23187H55.8242V18.4897H64.1555V15.5394H59.0085V2.23187Z" fill="#8ED1FC"/>
<path d="M46.2875 0L38.9441 2.91019L26.0075 2.80769L9.29736 7.58075L0 6.75627L9.37968 10.0898L16.2552 8.79742L22.2556 9.94277L19.6258 13.1337L28.9319 17.9915L25.9295 13.7176L34.8976 6.45322L29.8893 14.4975L33.3943 14.6534L27.4242 24.5249L41.2836 11.4625L38.8011 11.409L44.065 7.62532L49.2292 7.66097L50.1997 5.28112L48.4494 3.6901L48.0032 2.518L46.2875 1.70244V0Z" fill="#8ED1FC" style="mix-blend-mode:screen"/>
<defs>
<linearGradient id="paint0_linear_2862_313" x1="48.2272" y1="2.84289" x2="-1.10604e-07" y2="2.84288" gradientUnits="userSpaceOnUse">
<stop stop-color="#5AFCFF"/>
<stop offset="0.104167" stop-color="#4DDAFF"/>
<stop offset="0.46875" stop-color="#2F86DF"/>
<stop offset="0.9999" stop-color="#1B4D7D"/>
</linearGradient>
</defs>
</svg>
