<svg class="brand__logo" height="48" width="90" xmlns="http://www.w3.org/2000/svg" xmlns:xlink="http://www.w3.org/1999/xlink">
<defs>
<path d="M.024.158h27.057v33.851H.024z" id="a"></path>
<path d="M0 .106h9.665v40.131H0z" id="c"></path>
<path d="M.114.129h4.213v4.249H.114z" id="e"></path>
</defs>
<g fill="none" fill-rule="evenodd">
<g transform="translate(10.91 13.714)">
<mask fill="#fff" id="b">
<use href="#a"></use>
</mask>
<path d="M26.587.159h-4.524c-.341 0-.496.22-.59.441-.042.097-7.703 18.264-7.703 18.264-.14.322-.326.32-.462-.004 0 0-7.58-18.029-7.676-18.25-.094-.22-.25-.442-.59-.442H.517C.162.17-.05.412.047.704c0 0 6.9 16.481 10.328 24.603.225.534.214.956-.006 1.483-1.004 2.403-2.742 6.63-2.742 6.63-.133.325.049.59.404.59h4.476c.404 0 .632-.199.76-.481.264-.58 13.79-32.835 13.79-32.835.097-.292-.115-.533-.47-.534" fill="#111236" mask="url(#b)"></path>
</g>
<g>
<mask fill="#fff" id="d">
<use href="#c"></use>
</mask>
<path d="M9.154 35.308H7.521c-1.481 0-2.145-.542-2.145-2.168V.598c0-.295-.205-.492-.511-.492H.511c-.306 0-.51.197-.51.492v32.837c0 4.584 1.94 6.802 6.741 6.802h2.412c.307 0 .51-.198.51-.493V35.8c0-.295-.203-.493-.51-.493" fill="#111236" mask="url(#d)"></path>
</g>
<path d="M46.795 17.93a.355.355 0 0 1 .357-.345l6.215.003c.298 0 .497-.195.497-.49v-3.485c0-.294-.199-.49-.497-.49h-6.232a.354.354 0 0 1-.339-.35l-.001-6.798c0-.294-.199-.49-.497-.49h-4.21c-.299 0-.497.196-.497.49V32.17c0 .99.077 1.883.241 2.68.676 3.28 2.822 4.92 7.095 4.921h4.431c.298 0 .496-.196.496-.49V35.33c0-.294-.198-.49-.496-.49h-3.7c-1.041 0-1.78-.213-2.213-.64-.433-.426-.65-1.387-.65-2.882V17.93zM84.467 39.932L65.579 14.148c-.16-.217-.378-.434-.72-.434h-5.286c-.356.002-.499.238-.318.526l8.121 11.043c.164.224.201.713-.033 1.053-.072.103-9.992 13.596-9.992 13.596-.18.287-.038.523.318.525h5.287c.341 0 .56-.217.718-.434l.002-.003c.074-.08 6.798-9.281 6.937-9.47a.404.404 0 0 1 .295-.143c.105 0 .208.049.288.136.387.531 6.884 9.419 6.966 9.505.158.209.371.41.7.41H83.7l.018-.001h.431c.356-.002.499-.238.318-.525" fill="#111236"></path>
<path d="M81.428 13.029h-5.219c-.336 0-.552.226-.709.454l-4.513 6.538c-.18.301-.038.549.313.55h5.204c.337 0 .552-.227.71-.454l4.527-6.538c.178-.301.038-.55-.313-.55" fill="#0099D9"></path>
<g transform="translate(85.227 36.343)">
<mask fill="#fff" id="f">
<use href="#e"></use>
</mask>
<path d="M2.364 2.092c.257 0 .386-.11.386-.332 0-.215-.129-.322-.386-.322h-.496c-.03 0-.044.015-.044.045v.565c0 .03.014.044.044.044h.496zm-.883 1.32c-.05 0-.077-.025-.077-.077V1.139c0-.052.026-.078.077-.078h.883c.257 0 .456.061.595.183.14.122.21.294.21.516 0 .163-.04.3-.121.41a.697.697 0 0 1-.342.244l.474.92c.022.053.007.078-.044.078h-.309c-.044 0-.077-.025-.1-.077l-.44-.865h-.42c-.03 0-.043.015-.043.044v.82c0 .053-.026.078-.078.078h-.265zm.74.6c.25 0 .48-.045.689-.134.21-.088.391-.212.546-.371.154-.159.275-.346.364-.56.088-.215.132-.448.132-.7 0-.25-.044-.483-.132-.698-.089-.214-.21-.4-.364-.555A1.69 1.69 0 0 0 2.91.628a1.75 1.75 0 0 0-.69-.133c-.25 0-.48.045-.689.133a1.69 1.69 0 0 0-.546.366c-.154.155-.276.34-.364.555a1.82 1.82 0 0 0-.132.699c0 .251.044.484.132.699.088.214.21.401.364.56.155.159.336.283.546.371.21.09.44.133.69.133zm0 .366A2.059 2.059 0 0 1 .273 3.09a2.188 2.188 0 0 1-.16-.843c0-.296.053-.573.16-.832A2.062 2.062 0 0 1 2.22.129c.302 0 .581.054.839.161.257.107.48.257.667.45.187.192.334.417.441.676.107.259.16.536.16.832 0 .303-.053.584-.16.843a2.112 2.112 0 0 1-.44.676c-.189.193-.411.343-.668.45-.258.107-.537.16-.839.16z" fill="#111236" mask="url(#f)"></path>
</g>
</g>
</svg>