<svg version="1.1" id="Layer_1" xmlns:x="ns_extend;" xmlns:i="ns_ai;" xmlns:graph="ns_graphs;" xmlns="http://www.w3.org/2000/svg" xmlns:xlink="http://www.w3.org/1999/xlink" x="0px" y="0px" viewBox="0 0 282.6 55" style="enable-background:new 0 0 282.6 55;" xml:space="preserve">
 <style type="text/css">
  .st0{fill:#0024FF;}
 </style>
 <metadata>
  <sfw xmlns="ns_sfw;">
   <slices>
   </slices>
   <sliceSourceBounds bottomLeftOrigin="true" height="55" width="282.6" x="-139.3" y="-217.3">
   </sliceSourceBounds>
  </sfw>
 </metadata>
 <g id="Group_1580">
  <path id="Path_1753" d="M93.4,13.9c7.1,0,11.6,3.9,11.6,10c0,6.4-4.7,10.4-12.1,10.4h-3.7v7h-6.8V13.9H93.4z M93.2,28.3
		c3,0,4.9-1.7,4.9-4.4c0-2.5-1.9-4-4.9-4h-4.1v8.4L93.2,28.3z">
  </path>
  <path id="Path_1754" d="M117,24.8h12.1v5.8H117v4.7h13.9v5.9h-20.7V13.9h20.7v5.9H117V24.8z">
  </path>
  <path id="Path_1755" d="M163,41.2h-5.3l-13.1-15v15h-6.8V13.9h5.2l13.2,15.4V13.9h6.8L163,41.2z">
  </path>
  <path id="Path_1756" d="M184.7,20v21.3h-6.8V20h-8.7v-6.1h24.2V20H184.7z">
  </path>
  <path id="Path_1757" d="M205.7,24.8h12.1v5.8h-12.1v4.7h13.9v5.9h-20.7V13.9h20.7v5.9h-13.9L205.7,24.8z">
  </path>
  <path id="Path_1758" d="M233.4,33.3v7.9h-6.8V13.9h12c6.8,0,11.3,3.7,11.3,9.6c0.1,3.6-2,6.9-5.2,8.5l7,9.2h-8.2l-5.9-7.9
		L233.4,33.3z M238.4,27.2c2.6,0,4.7-1.4,4.7-3.7c0-2.2-2.1-3.6-4.7-3.6h-5v7.3L238.4,27.2z">
  </path>
  <path id="Path_1759" d="M262,36.5l-1.8,4.7H253l11.6-27.5h6.5l11.6,27.5h-7.2l-1.8-4.7H262z M267.8,21.7l-3.5,9.1h7.1L267.8,21.7z">
  </path>
  <path id="Path_1760" class="st0" d="M43.7,21.8L55,15.3V2.5C55,1.1,53.9,0,52.4,0H5.9L43.7,21.8z">
  </path>
  <path id="Path_1761" class="st0" d="M36.8,25.9l-14.1-8.2V34L36.8,25.9z">
  </path>
  <path id="Path_1762" class="st0" d="M15.6,13.7L0,4.7v47.8C0,53.9,1.1,55,2.6,55c0,0,0,0,0,0h13.1V13.7z">
  </path>
  <path id="Path_1763" class="st0" d="M22.6,42.1V55h29.8c1.4,0,2.6-1.1,2.6-2.6l0,0v-29L22.6,42.1z">
  </path>
 </g>
</svg>