<?xml version="1.0" encoding="UTF-8"?>
<svg id="Layer_2" data-name="Layer 2" xmlns="http://www.w3.org/2000/svg" viewBox="0 0 182.62 66.85">
  <defs>
    <style>
      .cls-1 {
        fill: #b5e600;
      }
    </style>
  </defs>
  <g id="Layer_1-2" data-name="Layer 1">
    <g>
      <g>
        <path class="cls-1" d="M35.92,21.89c-1.68-1.95-3.54-3.4-5.51-4.28h0c-1.97-.88-4.2-1.33-6.62-1.33-6.89,0-10.65,4.08-12.12,6.17v-5.17H0v48.57h11.66v-26.98c0-4.01.97-6.98,2.89-8.83,1.92-1.85,4.39-2.79,7.34-2.79,1.35,0,2.55.19,3.57.57,1.01.38,1.94,1.02,2.76,1.91l.25.27,7.65-7.87-.21-.24Z"/>
        <path class="cls-1" d="M80.27,28.83c-2.08-3.96-4.87-7.07-8.3-9.26-3.43-2.19-7.69-3.3-12.65-3.3s-9.23,1.14-13.09,3.39c-3.86,2.25-6.95,5.29-9.2,9.05-2.25,3.76-3.39,8.05-3.39,12.74s1.12,9.01,3.34,12.84c2.22,3.83,5.33,6.91,9.25,9.15,3.92,2.25,8.49,3.39,13.59,3.39,4.01,0,7.77-.71,11.15-2.12,3.39-1.41,6.31-3.52,8.66-6.28l.2-.24-7.46-7.57-.24.28c-1.42,1.62-3.19,2.86-5.26,3.7-2.07.84-4.48,1.27-7.15,1.27-1.92,0-3.7-.25-5.31-.75l25.98-26.07-.12-.22ZM46.82,48.98c-1.15-2.15-1.73-4.68-1.73-7.52s.59-5.3,1.75-7.47c1.16-2.16,2.84-3.88,5-5.1,2.17-1.23,4.74-1.85,7.66-1.85s5.46.58,7.19,1.74c.06.04.12.09.18.13l-20.06,20.06Z"/>
        <path class="cls-1" d="M117.69,50.72c-1.35,1.61-3.01,2.84-4.91,3.65-1.91.81-4.03,1.22-6.3,1.22-2.65,0-5.03-.6-7.06-1.8-2.03-1.19-3.63-2.86-4.76-4.95-1.13-2.1-1.71-4.55-1.71-7.27s.57-5.25,1.71-7.32c1.13-2.06,2.73-3.71,4.76-4.91,2.03-1.19,4.41-1.8,7.06-1.8,2.27,0,4.39.41,6.3,1.22,1.9.81,3.55,2.03,4.91,3.65l.24.29,7.67-7.78-.2-.24c-2.29-2.69-5.1-4.78-8.35-6.22-3.25-1.44-6.81-2.18-10.56-2.18-4.76,0-9.13,1.12-12.99,3.34-3.86,2.22-6.94,5.26-9.15,9.05-2.21,3.79-3.34,8.13-3.34,12.89s1.12,9.01,3.34,12.84c2.21,3.83,5.29,6.89,9.15,9.1,3.86,2.22,8.23,3.34,12.99,3.34,3.75,0,7.31-.73,10.56-2.18,3.26-1.44,6.07-3.54,8.35-6.23l.2-.24-7.67-7.78-.24.29Z"/>
      </g>
      <path class="cls-1" d="M154.62,16.6c-14.22-2-27.36,7.58-29.3,21.35-1.94,13.77,8.04,26.6,22.26,28.6,14.21,2,27.36-7.57,29.3-21.34,1.94-13.77-8.05-26.61-22.26-28.61ZM166.56,40.68c-1,7.1-7.57,12.04-14.67,11.04-7.1-1-12.04-7.56-11.04-14.66,1-7.1,7.56-12.05,14.66-11.05,7.1,1,12.05,7.57,11.05,14.67Z"/>
      <path class="cls-1" d="M179.14,1.36c-3.62-2.45-8.55-1.51-11,2.12-2.45,3.62-1.51,8.55,2.12,11,3.62,2.45,8.55,1.51,11-2.12,2.45-3.62,1.51-8.55-2.12-11Z"/>
    </g>
  </g>
</svg>